<svg xmlns="http://www.w3.org/2000/svg" viewBox="0 0 479.63 216.92"><defs><style>.cls-1{opacity:0.5;}.cls-2{fill:#00c7ff;stroke:#00c7ff;stroke-miterlimit:10;stroke-width:0.25px;}</style></defs><g id="Layer_2" data-name="Layer 2"><g id="Layer_1-2" data-name="Layer 1"><g class="cls-1"><path class="cls-2" d="M127.2,94.73a121.49,121.49,0,0,1-5,15.7,133.46,133.46,0,0,1-7.72,16.19q-9.76,17.59-22.23,29-2.61,2.21-9.22,5.12c-3,1.24-5,2.11-6,2.63a45.78,45.78,0,0,0,7,8.18,23,23,0,0,0,8.44,4.77,7.61,7.61,0,0,1-5.22,3l-3.34.59,0,.17a4.77,4.77,0,0,0,.49,1.48l.33,1.86q.75,4.23-4.29,8.26-3.68,1.35-8.11,6.14l0-.16a5.66,5.66,0,0,0-.24,1.26c0,.22,1.56.59,4.57,1.1,1.73.28,3,.51,3.92.7l1.79.38a8.48,8.48,0,0,1,1.9,4.2q1.59,9-10.46,11.09-5.13.92-8.39-.6a4.11,4.11,0,0,1,.6-3.07,2.1,2.1,0,0,1,.58,0,2.6,2.6,0,0,0,.57,0,3.23,3.23,0,0,0,1.15,0c.29-.05.62-.35,1-.87l1.34-.24a2.85,2.85,0,0,1,1.38,0,7.82,7.82,0,0,1,1,.44q.51.25.54.42a7.46,7.46,0,0,0,4-2.54,4.65,4.65,0,0,0,1.28-3.8q-.39-2.2-5.25-2.38c-4.46,0-6.86-1-7.22-3.08q-.87-4.89,7-9.78,6.63-4.14,6.36-5.66c-.4-2.26-1.35-3.25-2.83-3a21.51,21.51,0,0,0-6,2.79,34.74,34.74,0,0,1-5.09,2.47l-4.68.84q3-9.26,4.23-15.05t.76-8.67c0,.23-.68.47-2.17.73a23.45,23.45,0,0,1-12.45-1.45,45.07,45.07,0,0,1-13.75-8.71L34.9,153c-1.06-.79-2.29-1.65-3.67-2.57-1.06-.74-2.07-1.49-3.05-2.24a32.53,32.53,0,0,0-3.52-2.34L22.48,144a.89.89,0,0,0-.32-.55c-.18-.15-.51-.44-1-.88s-1.07-1.05-1.82-1.85-1.81-2-3.15-3.45a61.86,61.86,0,0,1-4.36-5.15q-2.1-2.78-4.52-6-5.17-9.7-6.19-15.46a53.6,53.6,0,0,1-1-9.58V93.23a26.29,26.29,0,0,1,4.56-10,18.79,18.79,0,0,1,8.09-6.92,20.43,20.43,0,0,1,6.52-2.82c2-.41,3.81-.76,5.45-1a32.85,32.85,0,0,1,20.84,2.66Q55.05,79.82,64,91.47a17.52,17.52,0,0,0,1.81-4.76,44.84,44.84,0,0,1,2.91-7.57,52.88,52.88,0,0,1,3.09-5.26,29.08,29.08,0,0,1,2.44-3.13A12.58,12.58,0,0,1,76.15,69a8.44,8.44,0,0,0,1.2-1c1-.63,2.29-1.39,4-2.27a33.05,33.05,0,0,1,6.93-2.45,2.7,2.7,0,0,1,1.5-.62A21.76,21.76,0,0,0,92.4,62c.3-.06.78-.17,1.44-.35s1.24-.33,1.75-.48A13.42,13.42,0,0,1,97,60.87l.44-.08a55,55,0,0,1,14.26-.09q6.83.88,9.46,4.07a16.33,16.33,0,0,1,5.08,5.9,27.94,27.94,0,0,1,2.7,8.06Q129.87,83.8,127.2,94.73ZM96.69,65.46q-10.26,1.82-15.3,5.85-4.17,3.7-8.3,11.58L69.6,90.48c-1.22,2.66-2.44,5.26-3.68,7.8l-3.34.6Q46.16,72.51,24.52,76.35a24.66,24.66,0,0,0-9.67,3.9q-4.3,2.94-8,9.35A3.42,3.42,0,0,0,6.18,91a6.38,6.38,0,0,1-.64,1.6l.19-.21a18.91,18.91,0,0,0-.53,5.41,43,43,0,0,0,.61,5.38l1.83,10.31L9.47,118a37.69,37.69,0,0,0,3,5.66l-.23,0c1.12,1.08,2.05,2,2.82,2.9s1.34,1.53,1.74,2a57.36,57.36,0,0,0,6.3,7.6q3.51,3.56,7.86,7.32,4.26,3.26,8.42,6.61T48,156.72q10,5.88,18.27,4.42l3.8-.67a73.32,73.32,0,0,0,12-3.7q9.25-3.57,16.12-14.19,1.84-2.6,3.48-5.06c1.09-1.65,2.1-3.25,3-4.82q21.6-35.2,18.27-54Q119.89,61.34,96.69,65.46ZM74.9,178.69c1.86-.74,4-1.49,6.28-2.24-.38-.4-.72-.78-1-1.13s-.63-.74-1-1.13c-.55-.49-1.14-1-1.77-1.52a18.88,18.88,0,0,1-1.51-1.39l.22,0a20.37,20.37,0,0,1-4.74-6q.1,1.89,0,4.53c-.07,1.75-.22,3.76-.43,6l-.62,1.68c-.25,1.2-.51,2.3-.8,3.28l.22,0Zm39.79-85.75q-4.36,5.31-7.7,5.9l-5.8,1q.9-6.62.66-8-.84-4.72-9.74-5.59c.2-1.43,1.46-3,3.79-4.6a16.33,16.33,0,0,1,6.37-3,20.29,20.29,0,0,1,10.49.75q4.92,1.74,5.64,5.8Q118.85,87.85,114.69,92.94Zm-5-9.65a9.18,9.18,0,0,0-5.53-.67l-4,1a10.62,10.62,0,0,0,3.56,2.5,4.31,4.31,0,0,1,2.71,3,6.54,6.54,0,0,0,.37,1.41,6.78,6.78,0,0,1,.23,2l-.79,3.28a11.74,11.74,0,0,0,5.2-5c.95-2,1.36-3.4,1.2-4.3C112.38,85.16,111.39,84.09,109.64,83.29Z"/><path class="cls-2" d="M177.59,96.59q.28,6.22,1,14.28.48,5.32,1.33,15.28.93,10.46-3.85,14.62a32.58,32.58,0,0,1-8.61,4.67,80.46,80.46,0,0,0-7.73,3.11c.62,3.49,1.5,5.89,2.66,7.2l-.26-.13,1.2.92c.44.33.93.68,1.45,1.05a11.1,11.1,0,0,0,2.18,1.88c1.05.74,2,1.39,2.87,1.93L163.2,164c-1.73.65-2.8,1.07-3.23,1.27l.19-.21c-1.5,1.08-2,3.14-1.43,6.18.26,1.46,2.49,2.35,6.68,2.65q7.69.54,8.36,4.27l.06.33a6.82,6.82,0,0,1,.09,1.82,2.73,2.73,0,0,1-.77,1.53,16.68,16.68,0,0,1-2.31,1.89q-1.64,1.15-4.74,3.11c-2.74,1.88-4,3.38-3.8,4.51q.15.84,7.06,6.06a4.84,4.84,0,0,1-3.47,2.53q-6.91,1.23-8.35-6.88-.78-4.39,5.54-9c3.33-2,5.06-3.86,5.21-5.63a4.31,4.31,0,0,0-1.67-.31,23,23,0,0,0-3,.09q-4.34.24-5.82-.36c-2.13-.79-3.49-2.81-4.07-6.08.07-.47.13-1.41.19-2.82l-.18-1-7.3,1.64-.39-2.19c-.16-.91.42-3.22,1.76-6.94,1.12-4,1.54-6.84,1.27-8.42-.2-1.12-.77-1.72-1.7-1.79l-.45.08a2.05,2.05,0,0,1-.7-.05,5.07,5.07,0,0,0-.94-.09c-.31,0-.69,0-1.16-.06a6.15,6.15,0,0,1-2.65-.66,13.81,13.81,0,0,1-2.84-1.76,23.34,23.34,0,0,1-2.47-2.26,7.51,7.51,0,0,1-1.54-2.17c-.46-.85-.94-1.84-1.45-3s-1.17-2.95-2-5.48-1.84-6-3-10.53-2.68-10.53-4.49-18.12l-2-12.54-.32-12.14c-.07-1.27-.15-2.59-.24-4a38.62,38.62,0,0,1-.05-4.17,25.12,25.12,0,0,1,.38-4.34,13.81,13.81,0,0,1,1.2-3.61q4.5-9.69,28.82-14,4.45-.78,7,.67l-.22,0Q165.58,55.5,170.42,64t6.15,22.35A83.73,83.73,0,0,1,177.59,96.59Zm-8.51-19.41a92.22,92.22,0,0,0-3.41-9.5Q159.32,54,152,55.3a75,75,0,0,0-11,2.66l.22,0L136,60.22l-2.11,1.07c-.7.36-1.48.73-2.33,1.11a17.08,17.08,0,0,0-4.36,5.92,15.27,15.27,0,0,0-.86,6.16,34,34,0,0,0,.3,4.92c.21,1.64.36,3.57.44,5.76q.18,3.63.26,6.66a53.29,53.29,0,0,0,.54,6.27c.3,2.15.68,4.47,1.12,6.94s1,5.4,1.78,8.75a16,16,0,0,1,.67,2.49,13.67,13.67,0,0,0,.65,2.33q1.16,4,2,7.23t1.77,6q4.75,15.19,11.23,14a17.14,17.14,0,0,0,4.15-1.26c.58-.22,1.34-.47,2.29-.75s1.27-.4,1-.35c0,.11.33.15.94.09a12.46,12.46,0,0,1,1.6,0,15.37,15.37,0,0,0,2.52-.1q11.82-2.1,14.37-11.09,1.41-5-.13-17.58a12.84,12.84,0,0,1-.17-1.62,19.13,19.13,0,0,1,0-2,12.8,12.8,0,0,0-.17-2.23l-.3-1.69q-.69-3.89-.94-7.24t-.31-6.31a42.93,42.93,0,0,0-.44-6.37A93.83,93.83,0,0,0,169.08,77.18Zm-9.93-8a7.28,7.28,0,0,1,4.79,5.6l0,4q.14,2.07-3.6,5.69l.23,0c-2.19,2.37-4.26,3.72-6.19,4.06a12.71,12.71,0,0,0-1.38,0,11.29,11.29,0,0,1-1.86-.11l-.36-2a4.11,4.11,0,0,1,.13-1.85c.19-.67.36-1.43.52-2.27s.36-1.43.55-2.1a4,4,0,0,0,.22-1.35A13.43,13.43,0,0,1,152,76.9a3.51,3.51,0,0,0-.52-1.65,4.65,4.65,0,0,0-1.88-1.49,20.44,20.44,0,0,0-4.28-1.42c.74-.13,1-.61.67-1.43s-.09-1.35.64-1.59,1.33-.44,1.85-.59a13.86,13.86,0,0,1,1.43-.34A16.22,16.22,0,0,1,159.15,69.19Zm-.36,5.12A5.36,5.36,0,0,0,157,72.18l.19-.21a7.7,7.7,0,0,0-2.76-.64c-1.65-.23-2.64-.38-3-.44a18,18,0,0,0,2.78,2c1.47.95,2.17,2.08,2.09,3.37l.33,1.86a7.83,7.83,0,0,1,.11,1.9,14.31,14.31,0,0,1-.47,1.91,4.28,4.28,0,0,0-.27,1.71,17.38,17.38,0,0,0,2.18-3.27,5.84,5.84,0,0,0,1-3.57A3.81,3.81,0,0,0,158.79,74.31Zm-.13,86.81a3.42,3.42,0,0,0,1.36-.76,19.65,19.65,0,0,1-2.64-3.19,32.79,32.79,0,0,1-2.37-4.29c-.42,1.93-.79,3.77-1.09,5.51s-.69,3.46-1.15,5.17l.44-.08a6.67,6.67,0,0,0,1.28-.57c.7-.36,1.56-.74,2.56-1.15C157.48,161.56,158,161.35,158.66,161.12Z"/><path class="cls-2" d="M257.5,80.66a20.19,20.19,0,0,1,2.87.62c1.13.33,2.34.66,3.63,1q3.11,1.89,6.48,4.07c2.25,1.47,4.45,3,6.6,4.76q6.53,5.64,8.88,11.14,3.27,6.75,1.17,12.43t-10.39,10.82q-3.27,2.33-12.42,4a50.61,50.61,0,0,1-20-1,32.27,32.27,0,0,1-15.56-8.56l.23,0q1.9,8.2-2.69,12.76t-15.06,7.82l.23,1.35q.31,1.68,13.15,7.95c-.7.35-1.62.78-2.76,1.27s-2.07.92-2.77,1.28a18.09,18.09,0,0,1-2,.88,18.92,18.92,0,0,0-2,.88q-3.56,2-4.05,4.38.75.39,2.61,1.11c1.24.48,2.52,1,3.85,1.58a6.91,6.91,0,0,1,4.45,5.66q.21,1.19-1.51,4.45a22,22,0,0,0-1.49,3.23,6.3,6.3,0,0,0-.33,3.37c.2,1.12,2,2.09,5.35,2.88q5.49,1.13,6.64,3.7l-3.35.6.27,1.52a16,16,0,0,1-4.47.1,15.28,15.28,0,0,1-4.46-1.13,12.51,12.51,0,0,1-3.5-2.25,5.51,5.51,0,0,1-1.82-3.08,8.53,8.53,0,0,1,.56-4.63c.64-1.63,1.21-3.12,1.74-4.49.32-.76.62-1.45.9-2.08a3,3,0,0,0,.28-1.62q-.36-2-3.47-2.69-5.1-1.55-6.21-2.56l-.62-3.55a4.37,4.37,0,0,0-1.09.37l-1.28.57a20.15,20.15,0,0,1-5.43,1.84l-.67.12a2.09,2.09,0,0,1-2.14-1.71l2-.36-1-.52q-.88.17.43-4.08l0,.17q1-4.89,1.4-7.66a14.13,14.13,0,0,0,.28-3.62l0-.17a44.41,44.41,0,0,1-6.49-.24,8.85,8.85,0,0,1-6.07-3.11,19.86,19.86,0,0,1-2.54-2,32.39,32.39,0,0,1-4.42-4.79c-.51-.26-1.13-1.16-1.86-2.72a56,56,0,0,1-2.28-5.7c-.78-2.24-1.56-4.66-2.32-7.25s-1.44-5.06-2-7.4a57.39,57.39,0,0,1-1.19-6.06,9.44,9.44,0,0,1,0-3.48c-.18-1-.39-2-.64-2.94s-.48-2.09-.72-3.44-.49-3-.75-4.84-.55-4.17-.88-6.9q-.15-3.47-.54-7c-.26-2.34-.52-4.64-.77-6.93a21.57,21.57,0,0,1,.33-7.2,15,15,0,0,1,3.86-6.79,25,25,0,0,1,7-5.42,50.72,50.72,0,0,1,9.85-3.49,30,30,0,0,1,12.77-1.31q5.77.81,11.92,6.86a24,24,0,0,1,3.07,4.34,50.71,50.71,0,0,1,3.39,7.41l4.86-5.65q2.38-2.77,4.9-5.49,3.85-4.17,6.9-7.15c2-2,3.77-3.57,5.25-4.77q7.35-5.31,13.59-6.42Q262,32.12,268.62,35t7.75,9.34Q279.1,59.75,257.5,80.66Zm8.07-42a19,19,0,0,0-11.14-1.16,28.28,28.28,0,0,0-8.32,3.66,77.17,77.17,0,0,0-8.33,6.27c-.64.69-1.35,1.43-2.14,2.21s-1.62,1.65-2.52,2.62q-1.94,2.09-4,4.55t-4.8,5.39q-1.23,2.13-3.44,5.22t-5.41,7.15a6.42,6.42,0,0,1-2.53-3.91A5.91,5.91,0,0,0,213,69a11.92,11.92,0,0,0-.41-2.28c-.21-.77-.42-1.52-.62-2.24a4,4,0,0,0-.59-1.38Q204,45.19,187.9,50.31a24.72,24.72,0,0,0-10.48,4.48q-4.69,3.45-5.78,7.65c-.25,1.2-.45,2.64-.62,4.29a26.71,26.71,0,0,0,0,5.06c.54,3,.92,5.39,1.13,7s.49,3.37.8,5.17.66,3.9,1.06,6.61,1.09,6.78,2,12.19c.22,1.24.51,2.67.88,4.29s.82,3.54,1.37,5.77l1.11,6.25a40.62,40.62,0,0,0,5.41,11.67,22.43,22.43,0,0,0,8.29,7.16q3.22,1.35,9,.31Q226.22,134,223.45,117c-.17-.08-.37-.54-.59-1.38a14.92,14.92,0,0,0-.71-2.05,9.57,9.57,0,0,1-1.3-3.43A3.28,3.28,0,0,1,221.9,107l2-.35A8.42,8.42,0,0,1,226,108.9c.53.84,1,1.68,1.49,2.53a12.39,12.39,0,0,1,1,1.82c.26.6.47.94.64,1l0-.17a45.32,45.32,0,0,0,6.24,4.65,54.18,54.18,0,0,0,8.74,4.55,37.82,37.82,0,0,0,8.66,2.12,61.63,61.63,0,0,0,7,.33c.76,0,1.63-.08,2.61-.2s2.06-.28,3.25-.49a19.82,19.82,0,0,0,12.06-6.59q4.49-5.23,3.43-11.15a14.38,14.38,0,0,0-2.39-5.06,34.23,34.23,0,0,0-4.81-5.69,46.15,46.15,0,0,0-10.15-7.26q-6.25-3.42-17.06-6,4.56-4.12,9.82-8.81A46.75,46.75,0,0,0,265,64.69q7.85-11.5,6.47-19.28Q270.68,40.85,265.57,38.62Zm-54,112.76a10.07,10.07,0,0,0,1.92-.86q-2.08-1.38-4.23-3.09l0,.17a4,4,0,0,1-1.22-1.7c-.48-1-1.17-2.23-2.06-3.82l-1.56.28c-.08,1.29-.23,2.8-.46,4.53s-.53,3.72-.9,6l-.4,1.64,1.79-.31a25.17,25.17,0,0,0,4.95-1.93A15.2,15.2,0,0,1,211.59,151.38Zm19,33.05a4.41,4.41,0,0,1,1.75.13c.25.13-.2.41-1.35.85A2,2,0,0,0,230.58,184.43ZM261.65,60a12.68,12.68,0,0,1-1.87,3.73,19.28,19.28,0,0,1-2.88,3.21,6.82,6.82,0,0,1-3.38,1.73l-4.62,1.17q1.32-4.23.73-6.23a5.4,5.4,0,0,0-1.12-2.41c-.64-3.61-3.65-5-9-4.32q4.68-6.06,8.7-6.77,12.25-2.19,13.83,6.6A7.35,7.35,0,0,1,261.65,60ZM255,54.71a3.91,3.91,0,0,0-3.44-1.22l-3.88.16c1.07.86,2.1,1.67,3.08,2.42a4.32,4.32,0,0,1,1.73,2.65c0-.22.06-.12.29.3a10,10,0,0,1,.65,1.72c.2.72.37,1.47.51,2.26a3.11,3.11,0,0,1-.14,1.77,6.18,6.18,0,0,0,2.53-3.24,7.18,7.18,0,0,0,.63-3.6A5.89,5.89,0,0,0,255,54.71Z"/><path class="cls-2" d="M393.49,87.63a21.29,21.29,0,0,1-2,8.81,23.31,23.31,0,0,1-5.43,7.67q-3.07,2.74-6.54,5.26a20.43,20.43,0,0,1-6,2.3l-4.68.83Q354.06,115.11,347,109a21.32,21.32,0,0,1-3.38-4.1,72.6,72.6,0,0,1-4.48-7.75A14.44,14.44,0,0,0,335.75,93a5.08,5.08,0,0,0-4.19-.91q-3.57.63-3.79,3.29a49,49,0,0,1-.69,5.17c-.39,2.16-.8,4.56-1.25,7.2q-1.36,5.3-9.78,9.75a20.94,20.94,0,0,1-6.29,2.16,4.54,4.54,0,0,1-1.62-.06.56.56,0,0,1-.35,0,.56.56,0,0,0-.35,0c-1.49.27-2.12,1-1.9,2.26a10.49,10.49,0,0,0,4.16,6.58,19.38,19.38,0,0,0,3.69,2.65,5.82,5.82,0,0,1,2,1.65,4.41,4.41,0,0,0,1.26,1.26l-1,2.09-2.23.4a9.74,9.74,0,0,1-1.47.17h-3.45c-.69,0-.89,0-.59-.07l.39-.42q-1.44.94-4.65,6.23c-1.86,3.35-2.77,5.13-2.73,5.36q3.19,1.17,6.62,2.31,7.36,2.53,8,6.25c.36,2-1,5.47-4.15,10.32a39.79,39.79,0,0,1-5.16,6,16.62,16.62,0,0,1-4.93,3.32,8.08,8.08,0,0,0-.54-1.74,7.69,7.69,0,0,0-1-1.65,38.2,38.2,0,0,0,7.12-7.89c2.58-3.6,3.77-6,3.54-7.25-.29-1.69-2.6-3-6.92-4l.22,0q-7.39-1.48-8.05-5.19a7.35,7.35,0,0,1,1-3.58,33.94,33.94,0,0,1,4.35-6.61.56.56,0,0,1-.35,0,.56.56,0,0,0-.35,0c-.6.11-1.41.31-2.43.61s-2.11.66-3.26,1.1a53.32,53.32,0,0,1-7,1.77,4.17,4.17,0,0,1-.38-.8,4,4,0,0,0-.62-.94l1.3-.4-1.17-.14q1.23-2.15,2.38-4.09a19.56,19.56,0,0,0,1.61-3.25,47.78,47.78,0,0,0,2.52-5.93,42.12,42.12,0,0,0,1.19-4.31q-14.71-1.22-17.36-16.09A63.13,63.13,0,0,1,276,95.33a26.35,26.35,0,0,1,.89-7.3q1-4,3.25-10.86a56.89,56.89,0,0,1,4.63-10.24q3-5.22,7.21-11.21a75.92,75.92,0,0,1,9.7-11.48,99.85,99.85,0,0,1,15-11.38,40.58,40.58,0,0,1,12.88-5.25q16.51-2.92,32.42,6.27a26.87,26.87,0,0,1,5.2,4q2.11,2.15,5.92,5.48,2.21,2.06,4.32,4.2a40.17,40.17,0,0,1,4.11,5,47.17,47.17,0,0,1,3.84,6.72,97,97,0,0,1,3.69,9.11,33.2,33.2,0,0,1,2.56,6,47,47,0,0,1,1.26,5.18A45,45,0,0,1,393.49,87.63ZM364.05,53.38a16.7,16.7,0,0,1-7.42,6.2l.64-.29c.13-.14-.19,0-.94.52s-1.84,1.14-3.22,2l-6.82.52A64.72,64.72,0,0,0,349.54,56a10.46,10.46,0,0,0,1.07-4.37l.77-.84q-.63-3.54-8.21-2.2l-2.46.44q1.38-6.52,10.3-8.11a27.5,27.5,0,0,1,9.61-.31l-.66-1.1.23,0a51.92,51.92,0,0,0-5.34-3.5,54.44,54.44,0,0,0-5.92-2.87q-3-1.22-9.72-1.59a36.49,36.49,0,0,0-10.11.06q-6.48,1.14-17.93,10.5a59.5,59.5,0,0,0-9.56,8.41,57.59,57.59,0,0,0-6,7.6,84.38,84.38,0,0,0-8.71,15.75,76.76,76.76,0,0,0-4.73,17.48c-.18.73-.41,2-.7,3.79a1.22,1.22,0,0,0-.11.71,1.23,1.23,0,0,1-.1.72l0-.17a57.65,57.65,0,0,0,.86,8.74q2,11.49,13,12.5l-.23,0a58.69,58.69,0,0,0,12.68-1.21q14.26-2.53,14.9-13.28a80,80,0,0,1,.6-8.29.91.91,0,0,1,0-.53.65.65,0,0,0,.05-.36q1.68-4.83,8.37-6a11,11,0,0,1,5.05.58q3,.94,4,2.17c.41.63.83,1.28,1.26,2s.85,1.33,1.27,2l0-.17a89,89,0,0,1,6.73,10.66l0-.17q4.95,5.92,17.23,3.74,11.1-2.31,16.25-8.29t4.46-15.08a6.65,6.65,0,0,0,.25-2.48,39.18,39.18,0,0,0-1.86-6.56q-1.33-3.69-3.33-8.38a71.56,71.56,0,0,0-7.8-14.13q-5.87-7.15-9-9.38l-.22,0,0-.17a3.44,3.44,0,0,1,.46,1.31Q366.76,49.24,364.05,53.38Zm-62.9,80,4.91-.87a18.38,18.38,0,0,1-3.44-3.14,8.35,8.35,0,0,1-1.74-4l.14-.55,0,.17-.13-3.29a2.3,2.3,0,0,0-.62-.93l-.89.16c-.12,1.06-.32,2.35-.59,3.85s-.63,3.16-1.07,5l-1.31,2.33a8.81,8.81,0,0,0-.6,1.15,1.93,1.93,0,0,1-.36.58,2.14,2.14,0,0,0-.36.59L295,135A34,34,0,0,1,301.15,133.39Zm31.51-66.24q-11.39,2-12.58-4.74-1.83-10.3,11.33-12.65,10.71-1.89,12.27,6.89Q345.15,64.93,332.66,67.15Zm-1.84-12.93a7.42,7.42,0,0,0-4.19,2.32,4.34,4.34,0,0,0-1.41,3.73c.2,1.13.69,1.74,1.48,1.83a28.67,28.67,0,0,0,7.16.13A5.17,5.17,0,0,0,337,60.09a4.19,4.19,0,0,0,1.17-3.17Q337.52,53,330.82,54.22Zm27.77-9.54a8.31,8.31,0,0,0-4.69-.48c-.15,0-.95.29-2.39.78l-.23,0q4.28,2,4.82,5.07.24,1.35-1.05,5.76l.89-.16a5.93,5.93,0,0,1,1.67-1,23,23,0,0,0,2.84-4.08,5.24,5.24,0,0,0,.67-3.34A3.61,3.61,0,0,0,358.59,44.68Z"/><path class="cls-2" d="M479.21,61.7A18.81,18.81,0,0,1,478,72.37q-2.17,5.26-8.53,10.93a63.2,63.2,0,0,1-12.58,8.24,97.84,97.84,0,0,1-14.81,6l-6.51,2.2.36,2q.18,1,12.74,7c-.29.06-.88.19-1.76.4s-1.48.35-1.78.41c-.87.27-1.89.53-3.07.8s-2.57.66-4.17,1.18l.23,0a8.88,8.88,0,0,0-4.19,4.92,11.54,11.54,0,0,0-1,6.28c1.18.6,3.43.78,6.77.54q5.64-.66,6.24,2.72.54,3-4,7.33-3.5,3.58-3.17,5.45a5.33,5.33,0,0,0,1.39,2.63,2.63,2.63,0,0,0,2.48,1,4.82,4.82,0,0,0,1.09-.37c.29-.05,1-.2,2-.44s1.69-.39,2-.44c-1.39,3.38-3,5.24-4.76,5.55-2.54.45-4.78-.54-6.75-3a8.49,8.49,0,0,1-1.75-2.74,16.06,16.06,0,0,1-.89-3.07q-.36-2,3.28-6.16,3.22-3.89,3.1-4.56c0-.11-.12-.21-.28-.3l-.64.29a14.41,14.41,0,0,1-7-.33c-2.76-.79-4.29-2.09-4.61-3.89a4.37,4.37,0,0,1,.22-2c.24-.8.51-1.64.82-2.5.09-.36.17-.76.25-1.18a4.88,4.88,0,0,1,.28-1q-8.61,4.67-10.61,5a1.64,1.64,0,0,1-2.12-1.55l2.23-.39c-.26-1.47.62-3.83,2.65-7.1q4.38-6.52,3.83-9.56l0-.17-.25-.13a92.66,92.66,0,0,1-10.65.93,51.86,51.86,0,0,1-10.26-.71,60.64,60.64,0,0,1-7.86-2.18,31.09,31.09,0,0,1-7.2-3.6A22.78,22.78,0,0,1,383,91.24a19.39,19.39,0,0,1-3.3-8.21,20.56,20.56,0,0,1,4.73-13.56,18.63,18.63,0,0,1,12.39-6.73q4.89-.87,13.16.27a80.74,80.74,0,0,0,9.6.92,12.86,12.86,0,0,0,5.56-2.39q2.44-1.82,2-4-.72-4.05-15.66-5.24-18.83-1-21.13-14-2.1-11.83,8.33-23.09A47.45,47.45,0,0,1,425,1.26,83.13,83.13,0,0,1,446.25.45q12.39,1.11,18.8,6.07a16.06,16.06,0,0,1,6.22,10.4,10.43,10.43,0,0,1-.94,7,17.38,17.38,0,0,1-5.12,5.53,23.44,23.44,0,0,1-4.63,2.39q-3,1.23-8,2.82c-3.62,1.22-5.42,2.35-5.38,3.39a8.08,8.08,0,0,1,.1,1.21c0,.46.73,1.32,2.18,2.57.84.43,1.72.83,2.63,1.19s1.93.73,3.07,1.11q2.47,1,5.35,2.28t6.34,2.62a27.44,27.44,0,0,1,8.56,5.45,13.33,13.33,0,0,1,4.06,7.3Zm-6.61-3.53a13.07,13.07,0,0,0-4.09-3.63,23.65,23.65,0,0,0-5.57-2.85q-3.21-1.17-6.34-2-2.19-.66-4.54-1.55a45,45,0,0,1-4.62-2.06c-4.05-2.06-6.24-4.06-6.58-6a5.55,5.55,0,0,1,1.33-4.16,9.13,9.13,0,0,1,4-3.24q14.65-5.57,14.44-5.53,6.21-3.89,5-10.65Q464.23,8.4,449.86,5.21a62.5,62.5,0,0,0-24.53-.7A38.76,38.76,0,0,0,399.1,21.37q-5.46,8.11-4.39,14.19,1.26,7.11,6.16,10.07a19.41,19.41,0,0,0,5.64,2,74.08,74.08,0,0,0,9,1.2q15.36.93,16.53,7.52.63,3.55-3.23,7.11A17.14,17.14,0,0,1,420,67.85q-3.57.63-11.42-.76-7.8-1.23-11.15-.64Q388.22,69,385.79,78.63a4.19,4.19,0,0,0-.22,1.35c0,.64,0,2,0,4.09q1.29,7.26,9.9,11.66a37.48,37.48,0,0,0,18.18,3.92,69.38,69.38,0,0,0,9.24-1.12,121.82,121.82,0,0,0,20.45-5.37,85.58,85.58,0,0,0,16.54-8Q476.4,74.4,474.25,62.23A10.44,10.44,0,0,0,472.6,58.17Zm-36.07,49.62-2.77-2.64a34.89,34.89,0,0,0-3.5-2.87,7.2,7.2,0,0,1-.55,2.1,5.78,5.78,0,0,0-.47,1.22c-.2.62-.32,1-.36,1.2a1,1,0,0,0,0,.44,21.9,21.9,0,0,1-1.68,3.52c-.59,1-1.19,1.93-1.79,2.85l0,.17A116.19,116.19,0,0,0,436.53,107.79Zm14.35-83.85c-.87,1.14-2.91,2.64-6.11,4.48L438.14,30q2.28-5.28,2.1-6.3-.69-3.88-11.27-2.53,1.81-5.37,10.51-6.92,10.93-1.95,12.31,5.83A4.76,4.76,0,0,1,450.88,23.94Zm-9.49-6.77-1.78.32c3.14,1.3,4.92,3.08,5.31,5.33a3.27,3.27,0,0,1,0,1.39c1.48-1.19,2.13-2.29,1.95-3.31C446.35,17.86,444.51,16.62,441.39,17.17Z"/></g></g></g></svg>