<svg xmlns="http://www.w3.org/2000/svg" viewBox="0 0 1465.25 740"><defs><style>.cls-1{fill:#fff;}.cls-2{fill:#00c7ff;}.cls-3{fill:#000a1f;}</style></defs><g id="Layer_2" data-name="Layer 2"><g id="Layer_1-2" data-name="Layer 1"><path class="cls-1" d="M801.9,450.07l-64-192.4h37.32L816.06,386,857,257.67h37.32l-64,192.4Z"/><path class="cls-1" d="M953,257.67v192.4H915.44V257.67Z"/><path class="cls-1" d="M992.72,450.07V257.67H1029v192.4ZM1019.18,422l-4.63-47.1,77.15-117.24h45.65Zm83.23,28.06-55.84-97.39L1077.8,333l67.62,117.11Z"/><path class="cls-1" d="M1148.07,450.07l73.57-192.4h23l73.57,192.4h-39l-46-131.4-46.05,131.4Zm35.33-30.84V384.3h101.22v34.93Z"/><path class="cls-1" d="M1391.94,452.05a130.22,130.22,0,0,1-26.93-2.78,113.62,113.62,0,0,1-24.68-8.14,98.44,98.44,0,0,1-20.77-12.9l16.8-29.9A81.61,81.61,0,0,0,1362,412.42a92,92,0,0,0,29.91,5q17.73,0,27.52-6t9.79-17v-.13q0-8.34-4.89-12.77a30.48,30.48,0,0,0-12.9-6.55,173.33,173.33,0,0,0-17.4-3.58q-11.25-1.71-22.76-4.3a73.88,73.88,0,0,1-21.18-8.2,41.9,41.9,0,0,1-15.54-16.08q-5.89-10.46-5.89-27.92v-.13q0-28.18,18.52-43.6t52.4-15.42a102.56,102.56,0,0,1,31.76,5.23,113.82,113.82,0,0,1,30,14.88l-15.35,30.7a93.16,93.16,0,0,0-23.22-12,71.32,71.32,0,0,0-23.23-4.17q-16.66,0-25.8,5.49t-9.13,15.42v.13q0,9.27,5.43,14a34.57,34.57,0,0,0,14.15,7.08q8.74,2.31,18.79,4.3,11.12,2.11,22.1,5.22a75.72,75.72,0,0,1,20.12,8.93,42,42,0,0,1,14.55,16q5.43,10.18,5.43,26.46v.27q0,27.78-19.19,43.07T1391.94,452.05Z"/><path class="cls-2" d="M107.65,694.37,83.44,650.63c1.27-.71,128.54-71.27,253.85-152.1,73.12-47.17,131.18-88.48,172.56-122.79,62.41-51.75,69-72.88,69.75-77.17C576.8,295.41,568.84,295,564,295c-14.54.12-35.2,4.75-61.4,13.78C450,326.93,382.37,360.21,317,392.4c-119.22,58.68-202.24,98-255.31,98-11.59,0-21.73-1.87-30.53-5.82C16.61,478,6.65,466.3,2.33,450.65c-7-25.27,1.68-53.33,26.47-85.81,19-24.91,48.2-53.4,89.23-87.09,75-61.6,182-134.18,295.21-211l31.55-21.42,28.1,41.36-31.58,21.43C329.05,184.29,223,256.24,149.76,316.39c-38,31.22-64.58,57-81.22,78.79-13.84,18.13-20.41,33.5-18,42.17a4.86,4.86,0,0,0,.49,1.28c.07.05,12.17,9.52,78.33-15.22,47.43-17.74,107.47-47.29,165.54-75.87,66.78-32.87,135.84-66.86,191.46-86,31.77-10.95,57-16.34,77.29-16.51h.93c36.24,0,52.68,17.13,60.09,31.57,20.59,40.08-25.22,87.59-67.43,124.49-41.2,36-101.42,79.93-179,130.5C247.07,617.07,109,693.61,107.65,694.37Z"/><circle class="cls-2" cx="519.34" cy="25" r="25"/><circle class="cls-2" cx="457.34" cy="67" r="25"/><circle class="cls-2" cx="95.04" cy="672.78" r="25"/><circle class="cls-2" cx="33.04" cy="715" r="25"/><circle class="cls-1" cx="315.04" cy="344" r="250"/><path class="cls-2" d="M62.27,491.35c-11.58,0-21.73-1.87-30.52-5.82C17.22,479,7.26,467.29,2.94,451.64l48.2-13.3a4.69,4.69,0,0,0,.5,1.28c.06.05,12.16,9.52,78.32-15.22,47.44-17.74,107.48-47.29,165.54-75.87,66.79-32.87,135.85-66.86,191.46-86,31.78-10.94,57.06-16.34,77.3-16.51h.93c36.23,0,52.67,17.13,60.09,31.57L580.8,300.41c-2-3.93-11-4.44-16.14-4.41-14.54.12-35.2,4.76-61.41,13.78C450.6,327.92,383,361.2,317.58,393.39,198.37,452.07,115.34,491.35,62.27,491.35Z"/><path class="cls-3" d="M325.06,483.89H294.27l-118-239.49h61.58l73,159.66L387.94,244.4h60.29Z"/></g></g></svg>