<svg xmlns="http://www.w3.org/2000/svg" viewBox="0 0 629.75 740"><defs><style>.cls-1{fill:#00c7ff;}.cls-2{fill:#fff;}.cls-3{fill:#000a1f;}</style></defs><g id="Layer_2" data-name="Layer 2"><g id="Layer_1-2" data-name="Layer 1"><path class="cls-1" d="M107.65,694.37,83.44,650.63c1.27-.71,128.54-71.27,253.85-152.1,73.12-47.17,131.18-88.48,172.56-122.79,62.41-51.75,69-72.88,69.75-77.17C576.8,295.41,568.82,295,564,295c-14.54.12-35.2,4.75-61.4,13.78C450,326.93,382.37,360.21,317,392.4c-119.22,58.68-202.24,98-255.31,98-11.59,0-21.73-1.87-30.53-5.82C16.61,478,6.65,466.3,2.33,450.65c-7-25.27,1.68-53.33,26.47-85.81,19-24.91,48.2-53.4,89.23-87.09,75-61.6,182-134.18,295.21-211l31.55-21.42,28.1,41.36-31.58,21.43C329.05,184.29,223,256.24,149.76,316.39c-38,31.22-64.58,57-81.22,78.79-13.84,18.13-20.41,33.5-18,42.17a4.86,4.86,0,0,0,.49,1.28c.07.05,12.17,9.52,78.33-15.22,47.43-17.74,107.47-47.29,165.54-75.87,66.78-32.87,135.84-66.86,191.46-86,31.77-10.95,57-16.34,77.29-16.51h.93c36.24,0,52.68,17.13,60.09,31.57,20.59,40.08-25.22,87.58-67.43,124.49-41.2,36-101.42,79.93-179,130.5C247.07,617.07,109,693.61,107.65,694.37Z"/><circle class="cls-1" cx="519.34" cy="25" r="25"/><circle class="cls-1" cx="457.34" cy="67" r="25"/><circle class="cls-1" cx="95.04" cy="672.78" r="25"/><circle class="cls-1" cx="33.04" cy="715" r="25"/><circle class="cls-2" cx="315.04" cy="344" r="250"/><path class="cls-1" d="M62.27,491.35c-11.58,0-21.73-1.87-30.52-5.82C17.22,479,7.26,467.29,2.94,451.64l48.2-13.3a4.69,4.69,0,0,0,.5,1.28c.06.05,12.16,9.52,78.32-15.22,47.44-17.74,107.48-47.29,165.54-75.87,66.79-32.87,135.85-66.86,191.46-86,31.78-10.94,57.06-16.34,77.3-16.51h.93c36.23,0,52.67,17.13,60.09,31.57L580.8,300.41c-2-3.93-11-4.46-16.14-4.41-14.54.12-35.2,4.76-61.41,13.78C450.6,327.92,383,361.2,317.58,393.39,198.37,452.07,115.34,491.35,62.27,491.35Z"/><path class="cls-3" d="M331.23,504.89H300.44l-118-239.49H244l73,159.66L394.11,265.4H454.4Z"/></g></g></svg>